<?xml version="1.0" standalone="no"?>
<!DOCTYPE svg PUBLIC "-//W3C//DTD SVG 20010904//EN"
 "http://www.w3.org/TR/2001/REC-SVG-20010904/DTD/svg10.dtd">
<svg version="1.0" xmlns="http://www.w3.org/2000/svg"
 width="490.000000pt" height="509.000000pt" viewBox="0 0 490.000000 509.000000"
 preserveAspectRatio="xMidYMid meet">

<g transform="translate(0.000000,509.000000) scale(0.100000,-0.100000)"
fill="#000000" stroke="none">
<path d="M2100 4844 c-163 -20 -216 -28 -307 -50 -209 -49 -471 -164 -647
-284 -400 -271 -699 -711 -792 -1162 -61 -301 -68 -804 -14 -1130 124 -747
759 -1380 1534 -1529 890 -170 1775 266 2155 1062 115 242 152 384 182 714 20
223 21 256 10 460 -16 280 -34 409 -76 551 -107 351 -311 665 -586 899 -277
236 -598 386 -959 447 -110 18 -417 32 -500 22z m530 -347 c69 -13 175 -41
235 -61 111 -37 313 -130 350 -161 l20 -17 -20 8 c-52 18 -164 34 -205 29
-168 -23 -255 -111 -254 -260 1 -86 33 -155 134 -290 104 -140 131 -202 150
-347 9 -74 2 -168 -19 -245 -9 -32 -17 -43 -31 -43 -23 0 -22 -7 -20 243 l1
148 -143 -3 -143 -3 -2 -160 c-1 -88 -2 -175 -3 -192 l0 -33 -205 0 -205 0 0
-145 0 -145 204 0 c187 0 204 -1 208 -18 10 -39 -9 -59 -79 -83 -59 -21 -86
-24 -203 -23 -122 0 -142 3 -210 29 -112 41 -130 57 -130 111 l0 44 -86 0 -86
0 31 -25 c16 -14 33 -35 36 -45 5 -15 15 -20 39 -20 21 0 50 -12 82 -35 114
-82 297 -126 440 -107 156 21 259 69 365 170 131 123 198 264 206 437 9 189
-29 294 -185 502 -108 145 -136 210 -129 298 8 111 63 178 173 211 141 42 322
-15 420 -134 121 -147 174 -313 174 -543 0 -196 -46 -346 -137 -441 -24 -25
-26 -26 -61 -11 -65 27 -150 1 -198 -63 -54 -71 -36 -194 37 -247 57 -41 152
-41 208 1 75 55 93 173 37 246 l-27 36 35 46 c159 209 168 592 21 873 -20 37
-59 95 -88 127 -58 65 -43 60 67 -24 324 -248 595 -657 710 -1070 36 -129 58
-248 58 -311 -1 -138 -89 -445 -185 -645 -113 -234 -232 -403 -411 -581 -255
-253 -542 -415 -892 -504 -269 -68 -623 -69 -899 -2 -534 129 -974 472 -1256
979 -115 207 -195 445 -234 698 -6 41 21 221 50 334 69 267 229 579 410 800
68 83 239 249 320 311 233 177 541 313 812 358 175 30 172 29 388 26 160 -3
225 -9 325 -28z m732 -1393 c38 -20 70 -69 76 -119 4 -35 -1 -53 -22 -89 -32
-55 -69 -76 -131 -76 -90 0 -149 56 -149 144 -1 83 40 139 115 156 38 8 71 4
111 -16z"/>
<path d="M802 3348 c-8 -8 -12 -56 -12 -150 0 -131 1 -138 20 -138 18 0 20 -7
20 -60 0 -53 -2 -60 -20 -60 -11 0 -20 -4 -20 -10 0 -7 211 -10 613 -10 504 1
609 3 595 14 -10 7 -22 25 -27 39 -10 25 -8 27 15 27 14 0 35 -5 47 -12 20
-10 21 -10 8 6 -8 10 -47 34 -85 53 -56 28 -99 63 -206 167 -102 101 -143 134
-169 139 -18 4 -199 7 -400 7 -272 0 -370 -3 -379 -12z m897 -133 c40 -41 71
-80 69 -87 -4 -10 -47 -14 -166 -16 l-162 -2 0 83 c0 46 3 87 7 90 3 4 45 7
93 7 l87 0 72 -75z"/>
<path d="M3061 2962 c-8 -18 -26 -50 -40 -70 -47 -65 -49 -62 33 -62 l75 0
-22 37 c-12 21 -24 58 -27 83 l-5 45 -14 -33z"/>
<path d="M790 2835 l0 -45 49 0 c41 0 51 4 65 25 9 13 26 33 38 45 l22 20 -87
0 -87 0 0 -45z"/>
<path d="M1119 2855 c16 -14 33 -35 36 -45 6 -19 17 -20 270 -20 l264 0 16 29
c8 17 25 37 37 45 21 15 -6 16 -316 16 l-338 0 31 -25z"/>
<path d="M2901 2760 c-30 -28 -90 -67 -133 -87 l-78 -38 0 -102 0 -103 135 0
135 0 0 190 c0 105 -1 190 -2 190 -2 -1 -27 -23 -57 -50z"/>
<path d="M1007 2773 c-14 -13 -7 -42 12 -52 24 -13 45 9 36 39 -6 19 -34 27
-48 13z"/>
<path d="M1802 2768 c-18 -18 -15 -36 7 -48 15 -7 23 -6 35 6 9 8 16 19 16 23
0 11 -23 31 -35 31 -6 0 -16 -5 -23 -12z"/>
<path d="M1766 2279 c-91 -22 -142 -94 -133 -186 7 -64 36 -106 95 -134 50
-25 122 -23 185 4 l37 16 0 65 0 66 -35 0 c-35 0 -35 0 -35 -44 0 -49 -9 -56
-69 -56 -40 0 -59 11 -85 50 -27 41 -21 87 18 126 39 39 75 44 130 17 34 -16
36 -16 55 8 23 28 15 43 -32 58 -55 17 -91 19 -131 10z"/>
<path d="M830 2160 c0 -141 10 -169 70 -200 74 -38 169 -19 214 43 17 23 21
47 24 152 l4 125 -41 0 -41 0 0 -109 c0 -94 -3 -112 -21 -135 -16 -20 -29 -26
-59 -26 -60 0 -70 22 -70 157 l0 113 -40 0 -40 0 0 -120z"/>
<path d="M1250 2111 l0 -171 40 0 40 0 0 50 0 50 38 0 c36 0 41 -3 66 -50 26
-47 30 -50 67 -50 21 0 39 5 39 11 0 6 -14 30 -31 55 l-30 44 30 31 c26 26 31
38 31 80 0 40 -5 55 -29 81 l-29 33 -116 3 -116 4 0 -171z m195 95 c20 -14 24
-71 6 -89 -6 -6 -35 -12 -66 -15 l-55 -4 0 61 0 61 48 0 c27 0 56 -6 67 -14z"/>
<path d="M2060 2110 l0 -171 133 3 c140 3 134 1 128 48 0 6 -38 10 -91 10 -52
0 -91 4 -91 10 -1 6 -2 22 -3 38 l-1 27 83 3 82 3 0 29 0 30 -80 0 c-46 0 -81
4 -81 10 -9 68 -6 70 91 70 l90 0 0 30 0 30 -130 0 -130 0 0 -170z"/>
<path d="M2430 2110 l0 -170 35 0 35 0 0 105 c0 58 4 105 9 105 5 0 26 -38 47
-85 34 -76 41 -85 65 -85 24 0 30 9 64 85 21 47 42 85 47 85 4 0 8 -48 8 -106
l0 -105 33 3 32 3 3 168 2 167 -47 0 -48 0 -44 -101 c-35 -77 -47 -97 -56 -87
-6 7 -29 52 -51 100 l-39 87 -47 1 -48 0 0 -170z"/>
<path d="M2920 2110 l0 -170 135 0 135 0 0 30 0 29 -92 3 -93 3 -3 37 -3 37
83 3 c82 3 83 3 86 30 l3 27 -83 3 -83 3 -3 38 -3 37 90 0 91 0 0 30 0 30
-130 0 -130 0 0 -170z"/>
<path d="M3294 2267 c-3 -8 -4 -84 -2 -169 l3 -153 45 -3 c168 -13 267 43 277
155 7 63 -14 112 -63 149 -35 27 -44 29 -146 32 -89 3 -109 1 -114 -11z m189
-58 c30 -14 57 -59 57 -97 0 -16 -10 -44 -23 -63 -21 -31 -27 -34 -80 -37
l-57 -3 0 106 0 105 40 0 c21 0 50 -5 63 -11z"/>
<path d="M1738 1823 c7 -3 16 -2 19 1 4 3 -2 6 -13 5 -11 0 -14 -3 -6 -6z"/>
<path d="M845 1800 c-3 -5 1 -10 9 -10 12 0 16 -10 16 -35 0 -19 5 -35 10 -35
6 0 10 16 10 35 0 25 4 35 16 35 8 0 12 5 9 10 -3 6 -19 10 -35 10 -16 0 -32
-4 -35 -10z"/>
<path d="M950 1765 c0 -25 5 -45 10 -45 6 0 10 5 10 10 0 6 7 10 15 10 8 0 15
-4 15 -10 0 -5 5 -10 11 -10 6 0 9 6 6 13 -2 6 0 20 4 29 12 22 -14 48 -47 48
-22 0 -24 -4 -24 -45z m53 10 c1 -5 -6 -11 -15 -13 -11 -2 -18 3 -18 13 0 17
30 18 33 0z"/>
<path d="M1075 1780 c-8 -16 -15 -36 -15 -45 0 -12 3 -13 19 -3 15 9 23 9 35
-2 9 -7 19 -10 23 -7 8 8 -27 87 -38 87 -5 0 -15 -13 -24 -30z m35 -21 c0 -5
-4 -9 -10 -9 -5 0 -10 7 -10 16 0 8 5 12 10 9 6 -3 10 -10 10 -16z"/>
<path d="M1180 1765 c0 -25 5 -45 10 -45 6 0 10 12 10 26 l0 27 21 -27 c29
-37 39 -32 39 20 0 27 -4 43 -10 39 -5 -3 -10 -16 -10 -28 -1 -21 -2 -21 -23
6 -13 15 -26 27 -30 27 -4 0 -7 -20 -7 -45z"/>
<path d="M1313 1803 c-20 -7 -15 -29 10 -47 l22 -17 -22 5 c-15 3 -23 -1 -23
-10 0 -19 56 -19 63 1 4 8 -5 23 -21 35 -26 21 -26 21 -4 17 15 -4 22 -1 19 6
-4 13 -26 18 -44 10z"/>
<path d="M1400 1765 c0 -25 5 -45 10 -45 6 0 10 7 10 15 0 8 9 15 20 15 11 0
20 5 20 10 0 6 -9 10 -20 10 -11 0 -20 5 -20 10 0 6 9 10 20 10 11 0 20 5 20
10 0 6 -13 10 -30 10 -29 0 -30 -2 -30 -45z"/>
<path d="M1500 1765 c0 -45 0 -45 36 -45 21 0 33 4 29 10 -3 6 -15 10 -26 10
-10 0 -19 4 -19 10 0 5 6 7 14 4 8 -3 17 -1 21 5 3 7 -2 11 -14 11 -12 0 -21
5 -21 10 0 6 9 10 20 10 11 0 20 5 20 10 0 6 -13 10 -30 10 -29 0 -30 -2 -30
-45z"/>
<path d="M1600 1765 c0 -25 5 -45 10 -45 6 0 10 5 10 10 0 6 7 10 15 10 8 0
15 -4 15 -10 0 -24 18 -7 24 22 7 37 -11 58 -51 58 -21 0 -23 -5 -23 -45z m53
10 c1 -5 -6 -11 -15 -13 -11 -2 -18 3 -18 13 0 17 30 18 33 0z"/>
<path d="M1718 1803 c-3 -7 -3 -35 1 -70 1 -15 61 -18 61 -3 0 6 -9 10 -21 10
-11 0 -17 5 -14 10 4 6 10 8 15 5 5 -3 11 -1 15 5 3 5 -3 10 -14 10 -12 0 -21
5 -21 10 0 6 9 10 20 10 11 0 20 5 20 10 0 12 -57 14 -62 3z"/>
<path d="M1820 1765 c0 -25 5 -45 10 -45 6 0 10 10 10 22 l0 21 23 -21 c13
-12 26 -22 30 -22 4 0 7 20 7 45 0 25 -4 45 -10 45 -5 0 -10 -12 -10 -27 l-1
-28 -24 28 c-13 15 -27 27 -30 27 -3 0 -5 -20 -5 -45z"/>
<path d="M1949 1791 c-21 -16 -22 -22 -11 -45 12 -27 54 -37 67 -16 3 6 -5 10
-18 10 -27 0 -40 19 -27 39 4 8 16 10 29 6 24 -7 29 10 5 19 -21 8 -19 9 -45
-13z"/>
<path d="M2050 1766 c0 -25 5 -46 10 -46 6 0 10 18 10 39 0 22 -4 43 -10 46
-6 4 -10 -12 -10 -39z"/>
<path d="M2126 1788 c-31 -50 -29 -87 2 -56 10 10 17 10 33 0 12 -8 23 -11 26
-9 5 5 -34 87 -42 87 -2 0 -11 -10 -19 -22z m20 -35 c-10 -10 -19 5 -10 18 6
11 8 11 12 0 2 -7 1 -15 -2 -18z"/>
<path d="M2232 1798 c-18 -18 -15 -26 16 -43 l27 -16 -28 4 c-18 3 -26 0 -24
-7 2 -6 16 -12 30 -14 38 -5 48 25 16 49 l-24 19 25 0 c20 0 22 2 10 10 -20
13 -34 12 -48 -2z"/>
<path d="M2377 1804 c-11 -11 -8 -84 3 -84 6 0 10 7 10 15 0 21 30 19 46 -2
12 -16 13 -12 14 30 0 30 -4 46 -10 42 -5 -3 -10 -13 -10 -21 0 -21 -30 -17
-38 6 -4 12 -11 18 -15 14z"/>
<path d="M2508 1799 c-21 -11 -24 -49 -6 -67 26 -26 78 -7 78 28 -1 35 -41 57
-72 39z m47 -34 c0 -13 -8 -21 -22 -23 -17 -3 -23 2 -23 16 0 10 3 22 7 26 13
13 38 1 38 -19z"/>
<path d="M2622 1797 c-13 -15 -5 -30 23 -42 18 -8 17 -9 -8 -13 -33 -4 -26
-22 9 -22 35 0 43 28 13 51 l-24 19 25 0 c20 0 22 2 10 10 -21 13 -36 12 -48
-3z"/>
<path d="M2720 1766 c0 -48 3 -53 23 -36 7 6 21 17 32 25 16 11 18 17 9 32 -6
10 -23 19 -38 21 -25 3 -26 1 -26 -42z m48 12 c-6 -18 -28 -21 -28 -4 0 9 7
16 16 16 9 0 14 -5 12 -12z"/>
<path d="M2827 1803 c-11 -10 -8 -83 3 -83 6 0 10 20 10 45 0 46 -2 50 -13 38z"/>
<path d="M2875 1800 c-3 -5 1 -10 9 -10 12 0 16 -10 16 -35 0 -19 5 -35 10
-35 6 0 10 16 10 35 0 25 4 35 16 35 8 0 12 5 9 10 -3 6 -19 10 -35 10 -16 0
-32 -4 -35 -10z"/>
<path d="M2990 1768 c-21 -48 -20 -55 8 -37 17 10 23 10 36 -1 9 -7 19 -10 23
-7 8 9 -27 87 -39 87 -5 0 -17 -19 -28 -42z m40 -9 c0 -5 -4 -9 -10 -9 -5 0
-10 7 -10 16 0 8 5 12 10 9 6 -3 10 -10 10 -16z"/>
<path d="M3100 1765 c0 -41 2 -45 25 -45 14 0 25 5 25 10 0 6 -7 10 -15 10
-10 0 -15 11 -15 35 0 19 -4 35 -10 35 -5 0 -10 -20 -10 -45z"/>
<path d="M3216 1803 c-11 -12 -37 -75 -32 -80 2 -3 13 1 24 8 17 10 23 10 36
-1 25 -20 28 -8 9 38 -16 42 -23 49 -37 35z m24 -44 c0 -5 -4 -9 -10 -9 -5 0
-10 7 -10 16 0 8 5 12 10 9 6 -3 10 -10 10 -16z"/>
<path d="M3310 1765 c0 -42 13 -60 23 -32 4 10 7 10 18 0 20 -20 24 -16 24 22
0 37 -16 55 -47 55 -15 0 -18 -9 -18 -45z m50 10 c0 -8 -7 -15 -15 -15 -8 0
-15 7 -15 15 0 8 7 15 15 15 8 0 15 -7 15 -15z"/>
<path d="M3420 1765 c0 -45 0 -45 36 -45 38 0 39 20 1 21 -21 0 -21 1 3 11 25
11 25 11 3 15 -28 5 -30 23 -3 23 11 0 20 5 20 10 0 6 -13 10 -30 10 -29 0
-30 -2 -30 -45z"/>
<path d="M3533 1803 c-20 -7 -15 -29 10 -47 l22 -17 -23 5 c-15 3 -22 0 -19
-7 2 -7 17 -12 33 -12 36 0 48 33 15 42 -24 6 -28 23 -5 23 8 0 12 5 9 10 -7
11 -22 12 -42 3z"/>
<path d="M2318 1653 c7 -3 16 -2 19 1 4 3 -2 6 -13 5 -11 0 -14 -3 -6 -6z"/>
<path d="M1680 1595 c0 -43 1 -45 28 -45 52 0 70 46 30 74 -42 29 -58 21 -58
-29z m56 10 c6 -16 -12 -45 -27 -45 -5 0 -9 14 -9 30 0 32 26 43 36 15z"/>
<path d="M1797 1633 c-4 -3 -7 -24 -7 -45 0 -38 0 -38 38 -37 21 1 28 3 17 6
-31 8 -42 23 -17 23 12 0 22 5 22 10 0 6 -9 10 -21 10 -11 0 -17 5 -14 10 3 6
15 10 26 10 10 0 19 5 19 10 0 11 -53 14 -63 3z"/>
<path d="M1952 1598 c3 -40 5 -43 33 -43 23 0 32 6 39 26 5 15 6 35 1 45 -7
18 -7 18 -15 -1 -4 -11 -5 -24 -3 -28 7 -11 -17 -38 -28 -31 -5 3 -9 18 -9 34
0 16 -5 32 -11 35 -7 5 -9 -8 -7 -37z"/>
<path d="M2069 1638 c-6 -19 -9 -64 -4 -76 4 -12 8 -12 22 -1 13 11 17 11 20
2 8 -23 20 -14 27 19 5 25 2 36 -11 45 -14 11 -51 18 -54 11z m46 -27 c7 -12
-12 -24 -25 -16 -11 7 -4 25 10 25 5 0 11 -4 15 -9z"/>
<path d="M2192 1624 c-40 -28 -22 -74 30 -74 22 0 28 4 28 23 -1 22 -1 22 -15
2 -14 -18 -16 -18 -32 -3 -14 14 -14 20 -3 33 7 9 21 13 31 10 23 -8 26 10 3
19 -20 8 -16 9 -42 -10z"/>
<path d="M2290 1595 l0 -45 38 1 c30 2 32 3 10 6 -32 5 -38 23 -8 23 11 0 20
5 20 10 0 6 -9 10 -20 10 -11 0 -20 5 -20 10 0 6 12 10 26 10 14 0 23 4 19 10
-3 6 -19 10 -36 10 -28 0 -29 -2 -29 -45z"/>
<path d="M2400 1597 c0 -26 5 -47 10 -47 6 0 10 10 10 23 l1 22 18 -22 c11
-13 24 -23 30 -23 14 0 15 77 1 85 -6 4 -10 -6 -10 -21 l0 -28 -30 29 -30 29
0 -47z"/>
<path d="M2528 1629 c-21 -12 -24 -49 -6 -67 15 -15 58 -16 58 -2 0 6 -6 10
-12 9 -30 -4 -39 2 -36 24 2 16 9 22 26 21 12 0 21 4 19 10 -5 15 -29 18 -49
5z"/>
<path d="M2627 1633 c-11 -10 -8 -83 3 -83 6 0 10 20 10 45 0 46 -2 50 -13 38z"/>
<path d="M2697 1605 c-9 -20 -17 -39 -17 -43 0 -4 20 -7 44 -8 l44 -1 -17 40
c-10 23 -22 42 -27 44 -6 2 -18 -13 -27 -32z m33 -15 c0 -5 -4 -10 -10 -10 -5
0 -10 5 -10 10 0 6 5 10 10 10 6 0 10 -4 10 -10z"/>
<path d="M3223 3060 c-46 -28 -62 -84 -38 -134 46 -97 184 -79 207 27 19 93
-84 159 -169 107z"/>
</g>
</svg>
